<svg width="269" height="270" viewBox="0 0 269 270" fill="none" xmlns="http://www.w3.org/2000/svg">
<path d="M9.73149 94.8596C-4.34934 85.3985 -2.8764 64.2338 12.3792 56.8144L124.645 2.21566C130.719 -0.738553 137.814 -0.738552 143.889 2.21566L256.154 56.8145C271.41 64.2338 272.883 85.3985 258.802 94.8596L146.536 170.292C139.116 175.278 129.417 175.278 121.997 170.292L9.73149 94.8596Z" fill="#D9D9D9"/>
<path d="M263.404 157.43C271.401 166.932 270.179 182.215 258.802 189.86L146.537 265.292C139.117 270.278 129.418 270.278 121.998 265.292L9.73193 189.86C-1.64513 182.215 -2.86661 166.932 5.13037 157.43L114.748 231.083C126.552 239.015 141.983 239.015 153.788 231.083L263.404 157.43ZM251.685 149.641L146.537 220.292C139.117 225.278 129.417 225.278 121.998 220.292L16.8481 149.641L46.4937 135.223L114.747 181.083C126.551 189.015 141.982 189.015 153.787 181.083L222.04 135.223L251.685 149.641ZM124.645 97.2163C130.719 94.2623 137.815 94.2622 143.889 97.2163L208.516 128.647L146.537 170.292C139.117 175.278 129.417 175.278 121.997 170.292L60.0161 128.647L124.645 97.2163Z" fill="#D9D9D9"/>
<path d="M260.365 109.471C271.546 118.408 271.455 136.358 258.802 144.86L146.536 220.292C139.116 225.278 129.417 225.278 121.997 220.292L9.7312 144.86C-2.92188 136.358 -3.01402 118.408 8.16675 109.471L114.747 181.083C126.551 189.015 141.982 189.015 153.787 181.083L260.365 109.471ZM124.644 52.2163C130.719 49.2621 137.814 49.2621 143.888 52.2163L247.368 102.542L146.536 170.292C139.116 175.278 129.417 175.278 121.997 170.292L21.1638 102.542L124.644 52.2163Z" fill="#D9D9D9"/>
</svg>
