<svg width="243" height="192" viewBox="0 0 243 192" fill="none" xmlns="http://www.w3.org/2000/svg">
<rect width="243" height="56" rx="17" fill="#D9D9D9"/>
<rect y="136" width="243" height="56" rx="17" fill="#D9D9D9"/>
<rect y="68" width="243" height="56" rx="17" fill="#D9D9D9"/>
<path d="M29.3295 30.7727L11.0341 40.0909V36.4545L25.0682 29.6932L24.9545 29.9205V29.3523L25.0682 29.5795L11.0341 22.8182V19.1818L29.3295 28.5V30.7727ZM56.8331 41.4545C54.7308 41.4545 52.9174 40.9905 51.3928 40.0625C49.8776 39.125 48.7081 37.8182 47.8842 36.142C47.0698 34.4564 46.6626 32.4962 46.6626 30.2614C46.6626 28.0265 47.0698 26.0568 47.8842 24.3523C48.7081 22.6383 49.8539 21.303 51.3217 20.3466C52.799 19.3807 54.5225 18.8977 56.4922 18.8977C57.6286 18.8977 58.7507 19.0871 59.8587 19.4659C60.9666 19.8447 61.9751 20.4602 62.8842 21.3125C63.7933 22.1553 64.5178 23.2727 65.0575 24.6648C65.5973 26.0568 65.8672 27.7708 65.8672 29.8068V31.2273H49.049V28.3295H62.4581C62.4581 27.0985 62.2119 26 61.7195 25.0341C61.2365 24.0682 60.5452 23.3059 59.6456 22.7472C58.7554 22.1884 57.7043 21.9091 56.4922 21.9091C55.157 21.9091 54.0017 22.2405 53.0263 22.9034C52.0604 23.5568 51.317 24.4091 50.7962 25.4602C50.2753 26.5114 50.0149 27.6383 50.0149 28.8409V30.7727C50.0149 32.4205 50.299 33.8172 50.8672 34.9631C51.4448 36.0994 52.245 36.9659 53.2678 37.5625C54.2905 38.1496 55.4789 38.4432 56.8331 38.4432C57.7138 38.4432 58.5092 38.3201 59.2195 38.0739C59.9392 37.8182 60.5594 37.4394 61.0803 36.9375C61.6011 36.4261 62.0036 35.7917 62.2876 35.0341L65.5263 35.9432C65.1854 37.0417 64.6125 38.0076 63.8075 38.8409C63.0026 39.6648 62.0083 40.3087 60.8246 40.7727C59.6409 41.2273 58.3104 41.4545 56.8331 41.4545ZM72.8807 19.1818L78.108 28.1023L83.3352 19.1818H87.1989L80.1534 30.0909L87.1989 41H83.3352L78.108 32.5341L72.8807 41H69.017L75.9489 30.0909L69.017 19.1818H72.8807ZM100.232 41.4545C98.1293 41.4545 96.3158 40.9905 94.7912 40.0625C93.276 39.125 92.1065 37.8182 91.2827 36.142C90.4683 34.4564 90.0611 32.4962 90.0611 30.2614C90.0611 28.0265 90.4683 26.0568 91.2827 24.3523C92.1065 22.6383 93.2524 21.303 94.7202 20.3466C96.1974 19.3807 97.9209 18.8977 99.8906 18.8977C101.027 18.8977 102.149 19.0871 103.257 19.4659C104.365 19.8447 105.374 20.4602 106.283 21.3125C107.192 22.1553 107.916 23.2727 108.456 24.6648C108.996 26.0568 109.266 27.7708 109.266 29.8068V31.2273H92.4474V28.3295H105.857C105.857 27.0985 105.61 26 105.118 25.0341C104.635 24.0682 103.944 23.3059 103.044 22.7472C102.154 22.1884 101.103 21.9091 99.8906 21.9091C98.5554 21.9091 97.4001 22.2405 96.4247 22.9034C95.4588 23.5568 94.7154 24.4091 94.1946 25.4602C93.6738 26.5114 93.4134 27.6383 93.4134 28.8409V30.7727C93.4134 32.4205 93.6974 33.8172 94.2656 34.9631C94.8433 36.0994 95.6435 36.9659 96.6662 37.5625C97.6889 38.1496 98.8774 38.4432 100.232 38.4432C101.112 38.4432 101.908 38.3201 102.618 38.0739C103.338 37.8182 103.958 37.4394 104.479 36.9375C105 36.4261 105.402 35.7917 105.686 35.0341L108.925 35.9432C108.584 37.0417 108.011 38.0076 107.206 38.8409C106.401 39.6648 105.407 40.3087 104.223 40.7727C103.039 41.2273 101.709 41.4545 100.232 41.4545ZM123.229 41.4545C121.183 41.4545 119.422 40.9716 117.945 40.0057C116.467 39.0398 115.331 37.7093 114.536 36.0142C113.74 34.3191 113.342 32.3826 113.342 30.2045C113.342 27.9886 113.75 26.0331 114.564 24.3381C115.388 22.6335 116.534 21.303 118.001 20.3466C119.479 19.3807 121.202 18.8977 123.172 18.8977C124.706 18.8977 126.089 19.1818 127.32 19.75C128.551 20.3182 129.559 21.1136 130.345 22.1364C131.131 23.1591 131.619 24.3523 131.808 25.7159H128.456C128.2 24.7216 127.632 23.8409 126.751 23.0739C125.88 22.2973 124.706 21.9091 123.229 21.9091C121.922 21.9091 120.776 22.25 119.791 22.9318C118.816 23.6042 118.054 24.5559 117.504 25.7869C116.964 27.0085 116.695 28.4432 116.695 30.0909C116.695 31.7765 116.96 33.2443 117.49 34.4943C118.03 35.7443 118.787 36.715 119.763 37.4062C120.748 38.0975 121.903 38.4432 123.229 38.4432C124.1 38.4432 124.891 38.2917 125.601 37.9886C126.311 37.6856 126.912 37.25 127.405 36.6818C127.897 36.1136 128.248 35.4318 128.456 34.6364H131.808C131.619 35.9242 131.15 37.0843 130.402 38.1165C129.663 39.1392 128.683 39.9536 127.462 40.5597C126.25 41.1562 124.839 41.4545 123.229 41.4545Z" fill="#A9A9A9"/>
<path d="M4.93182 159V156.443C4.93182 155.667 5.06913 154.843 5.34375 153.972C5.62784 153.091 6.03504 152.243 6.56534 151.429C7.10511 150.605 7.75379 149.89 8.51136 149.284L10.3295 150.761C9.73295 151.614 9.21212 152.504 8.76705 153.432C8.33144 154.35 8.11364 155.335 8.11364 156.386V159H4.93182ZM12.2045 159V156.443C12.2045 155.667 12.3419 154.843 12.6165 153.972C12.9006 153.091 13.3078 152.243 13.8381 151.429C14.3778 150.605 15.0265 149.89 15.7841 149.284L17.6023 150.761C17.0057 151.614 16.4848 152.504 16.0398 153.432C15.6042 154.35 15.3864 155.335 15.3864 156.386V159H12.2045ZM24.6548 165.875V179H21.3026V149.909H24.6548V160.591H24.9389C25.4503 159.464 26.2173 158.569 27.2401 157.906C28.2723 157.234 29.6454 156.898 31.3594 156.898C32.8461 156.898 34.1482 157.196 35.2656 157.793C36.383 158.38 37.2495 159.284 37.8651 160.506C38.4901 161.718 38.8026 163.261 38.8026 165.136V179H35.4503V165.364C35.4503 163.631 35.0005 162.291 34.1009 161.344C33.2107 160.387 31.9749 159.909 30.3935 159.909C29.295 159.909 28.3101 160.141 27.4389 160.605C26.5772 161.069 25.8954 161.746 25.3935 162.636C24.901 163.527 24.6548 164.606 24.6548 165.875ZM54.0831 179.455C51.9808 179.455 50.1674 178.991 48.6428 178.062C47.1276 177.125 45.9581 175.818 45.1342 174.142C44.3198 172.456 43.9126 170.496 43.9126 168.261C43.9126 166.027 44.3198 164.057 45.1342 162.352C45.9581 160.638 47.1039 159.303 48.5717 158.347C50.049 157.381 51.7725 156.898 53.7422 156.898C54.8786 156.898 56.0007 157.087 57.1087 157.466C58.2166 157.845 59.2251 158.46 60.1342 159.312C61.0433 160.155 61.7678 161.273 62.3075 162.665C62.8473 164.057 63.1172 165.771 63.1172 167.807V169.227H46.299V166.33H59.7081C59.7081 165.098 59.4619 164 58.9695 163.034C58.4865 162.068 57.7952 161.306 56.8956 160.747C56.0054 160.188 54.9543 159.909 53.7422 159.909C52.407 159.909 51.2517 160.241 50.2763 160.903C49.3104 161.557 48.567 162.409 48.0462 163.46C47.5253 164.511 47.2649 165.638 47.2649 166.841V168.773C47.2649 170.42 47.549 171.817 48.1172 172.963C48.6948 174.099 49.495 174.966 50.5178 175.562C51.5405 176.15 52.7289 176.443 54.0831 176.443C54.9638 176.443 55.7592 176.32 56.4695 176.074C57.1892 175.818 57.8094 175.439 58.3303 174.938C58.8511 174.426 59.2536 173.792 59.5376 173.034L62.7763 173.943C62.4354 175.042 61.8625 176.008 61.0575 176.841C60.2526 177.665 59.2583 178.309 58.0746 178.773C56.8909 179.227 55.5604 179.455 54.0831 179.455ZM71.5689 149.909V179H68.2166V149.909H71.5689ZM81.0611 149.909V179H77.7088V149.909H81.0611ZM96.0646 179.455C94.0949 179.455 92.3667 178.986 90.88 178.048C89.4027 177.111 88.2474 175.799 87.4141 174.114C86.5902 172.428 86.1783 170.458 86.1783 168.205C86.1783 165.932 86.5902 163.948 87.4141 162.253C88.2474 160.558 89.4027 159.241 90.88 158.304C92.3667 157.366 94.0949 156.898 96.0646 156.898C98.0343 156.898 99.7578 157.366 101.235 158.304C102.722 159.241 103.877 160.558 104.701 162.253C105.534 163.948 105.951 165.932 105.951 168.205C105.951 170.458 105.534 172.428 104.701 174.114C103.877 175.799 102.722 177.111 101.235 178.048C99.7578 178.986 98.0343 179.455 96.0646 179.455ZM96.0646 176.443C97.5608 176.443 98.7919 176.06 99.7578 175.293C100.724 174.526 101.439 173.517 101.903 172.267C102.367 171.017 102.599 169.663 102.599 168.205C102.599 166.746 102.367 165.387 101.903 164.128C101.439 162.868 100.724 161.85 99.7578 161.074C98.7919 160.297 97.5608 159.909 96.0646 159.909C94.5684 159.909 93.3374 160.297 92.3714 161.074C91.4055 161.85 90.6906 162.868 90.2266 164.128C89.7625 165.387 89.5305 166.746 89.5305 168.205C89.5305 169.663 89.7625 171.017 90.2266 172.267C90.6906 173.517 91.4055 174.526 92.3714 175.293C93.3374 176.06 94.5684 176.443 96.0646 176.443ZM127.261 179L120.614 157.182H124.136L128.852 173.886H129.08L133.739 157.182H137.318L141.92 173.83H142.148L146.864 157.182H150.386L143.739 179H140.443L135.67 162.239H135.33L130.557 179H127.261ZM162.94 179.455C160.97 179.455 159.242 178.986 157.755 178.048C156.278 177.111 155.122 175.799 154.289 174.114C153.465 172.428 153.053 170.458 153.053 168.205C153.053 165.932 153.465 163.948 154.289 162.253C155.122 160.558 156.278 159.241 157.755 158.304C159.242 157.366 160.97 156.898 162.94 156.898C164.909 156.898 166.633 157.366 168.11 158.304C169.597 159.241 170.752 160.558 171.576 162.253C172.409 163.948 172.826 165.932 172.826 168.205C172.826 170.458 172.409 172.428 171.576 174.114C170.752 175.799 169.597 177.111 168.11 178.048C166.633 178.986 164.909 179.455 162.94 179.455ZM162.94 176.443C164.436 176.443 165.667 176.06 166.633 175.293C167.599 174.526 168.314 173.517 168.778 172.267C169.242 171.017 169.474 169.663 169.474 168.205C169.474 166.746 169.242 165.387 168.778 164.128C168.314 162.868 167.599 161.85 166.633 161.074C165.667 160.297 164.436 159.909 162.94 159.909C161.443 159.909 160.212 160.297 159.246 161.074C158.281 161.85 157.566 162.868 157.102 164.128C156.638 165.387 156.406 166.746 156.406 168.205C156.406 169.663 156.638 171.017 157.102 172.267C157.566 173.517 158.281 174.526 159.246 175.293C160.212 176.06 161.443 176.443 162.94 176.443ZM177.943 179V157.182H181.182V160.477H181.409C181.807 159.398 182.527 158.522 183.568 157.849C184.61 157.177 185.784 156.841 187.091 156.841C187.337 156.841 187.645 156.846 188.014 156.855C188.384 156.865 188.663 156.879 188.852 156.898V160.307C188.739 160.278 188.478 160.236 188.071 160.179C187.673 160.113 187.252 160.08 186.807 160.08C185.746 160.08 184.799 160.302 183.966 160.747C183.142 161.183 182.489 161.789 182.006 162.565C181.532 163.332 181.295 164.208 181.295 165.193V179H177.943ZM196.178 149.909V179H192.826V149.909H196.178ZM210.557 179.455C208.739 179.455 207.134 178.995 205.741 178.077C204.349 177.149 203.26 175.842 202.474 174.156C201.688 172.461 201.295 170.458 201.295 168.148C201.295 165.856 201.688 163.867 202.474 162.182C203.26 160.496 204.354 159.194 205.756 158.276C207.157 157.357 208.777 156.898 210.614 156.898C212.034 156.898 213.156 157.134 213.98 157.608C214.813 158.072 215.448 158.602 215.884 159.199C216.329 159.786 216.674 160.269 216.92 160.648H217.205V149.909H220.557V179H217.318V175.648H216.92C216.674 176.045 216.324 176.547 215.869 177.153C215.415 177.75 214.766 178.285 213.923 178.759C213.08 179.223 211.958 179.455 210.557 179.455ZM211.011 176.443C212.356 176.443 213.492 176.093 214.42 175.392C215.348 174.682 216.054 173.702 216.537 172.452C217.02 171.192 217.261 169.739 217.261 168.091C217.261 166.462 217.025 165.037 216.551 163.815C216.078 162.584 215.377 161.628 214.449 160.946C213.521 160.255 212.375 159.909 211.011 159.909C209.591 159.909 208.407 160.274 207.46 161.003C206.523 161.723 205.817 162.703 205.344 163.943C204.88 165.174 204.648 166.557 204.648 168.091C204.648 169.644 204.884 171.055 205.358 172.324C205.841 173.583 206.551 174.587 207.489 175.335C208.436 176.074 209.61 176.443 211.011 176.443ZM230.116 149.909V152.466C230.116 153.242 229.974 154.071 229.69 154.952C229.416 155.823 229.009 156.67 228.469 157.494C227.938 158.309 227.295 159.019 226.537 159.625L224.719 158.148C225.315 157.295 225.831 156.41 226.267 155.491C226.712 154.563 226.935 153.574 226.935 152.523V149.909H230.116ZM237.389 149.909V152.466C237.389 153.242 237.247 154.071 236.963 154.952C236.688 155.823 236.281 156.67 235.741 157.494C235.211 158.309 234.567 159.019 233.81 159.625L231.991 158.148C232.588 157.295 233.104 156.41 233.54 155.491C233.985 154.563 234.207 153.574 234.207 152.523V149.909H237.389Z" fill="#A9A9A9"/>
<path d="M15.5227 111V81.9091H19.0455V107.875H32.5682V111H15.5227ZM47 111H38.0227V81.9091H47.3977C50.2197 81.9091 52.6345 82.4915 54.642 83.6562C56.6496 84.8116 58.1884 86.4735 59.2585 88.642C60.3286 90.8011 60.8636 93.3864 60.8636 96.3977C60.8636 99.428 60.3239 102.037 59.2443 104.224C58.1648 106.402 56.5928 108.079 54.5284 109.253C52.464 110.418 49.9545 111 47 111ZM41.5455 107.875H46.7727C49.178 107.875 51.1714 107.411 52.7528 106.483C54.3343 105.555 55.5133 104.234 56.2898 102.52C57.0663 100.806 57.4545 98.7652 57.4545 96.3977C57.4545 94.0492 57.071 92.0275 56.304 90.3324C55.5369 88.6278 54.3911 87.321 52.8665 86.4119C51.3419 85.4934 49.4432 85.0341 47.1705 85.0341H41.5455V107.875ZM70.2955 81.9091V111H66.7727V81.9091H70.2955ZM96.6768 114.636V78.2727H99.0064V114.636H96.6768ZM104.518 89.1818C104.347 87.7424 103.656 86.625 102.444 85.8295C101.232 85.0341 99.745 84.6364 97.9837 84.6364C96.6958 84.6364 95.5689 84.8447 94.603 85.2614C93.6465 85.678 92.8984 86.2509 92.3587 86.9801C91.8284 87.7093 91.5632 88.5379 91.5632 89.4659C91.5632 90.2424 91.7479 90.91 92.1172 91.4688C92.496 92.018 92.9789 92.4773 93.5661 92.8466C94.1532 93.2064 94.7687 93.5047 95.4126 93.7415C96.0566 93.9687 96.6484 94.1534 97.1882 94.2955L100.143 95.0909C100.9 95.2898 101.743 95.5644 102.671 95.9148C103.609 96.2652 104.504 96.7434 105.356 97.3494C106.218 97.946 106.928 98.7131 107.487 99.6506C108.045 100.588 108.325 101.739 108.325 103.102C108.325 104.674 107.913 106.095 107.089 107.364C106.274 108.633 105.081 109.641 103.509 110.389C101.947 111.137 100.048 111.511 97.8132 111.511C95.7299 111.511 93.9259 111.175 92.4013 110.503C90.8861 109.83 89.6929 108.893 88.8217 107.69C87.96 106.488 87.4723 105.091 87.3587 103.5H90.995C91.0897 104.598 91.459 105.508 92.103 106.227C92.7564 106.937 93.5803 107.468 94.5746 107.818C95.5784 108.159 96.6579 108.33 97.8132 108.33C99.1579 108.33 100.365 108.112 101.435 107.676C102.505 107.231 103.353 106.616 103.978 105.83C104.603 105.034 104.915 104.106 104.915 103.045C104.915 102.08 104.646 101.294 104.106 100.688C103.566 100.081 102.856 99.589 101.975 99.2102C101.094 98.8314 100.143 98.5 99.12 98.2159L95.5405 97.1932C93.2678 96.5398 91.4685 95.607 90.1428 94.3949C88.817 93.1828 88.1541 91.5966 88.1541 89.6364C88.1541 88.0076 88.5945 86.5871 89.4751 85.375C90.3653 84.1534 91.5585 83.2064 93.0547 82.5341C94.5604 81.8523 96.2412 81.5114 98.0973 81.5114C99.9723 81.5114 101.639 81.8475 103.097 82.5199C104.556 83.1828 105.711 84.0919 106.563 85.2472C107.425 86.4025 107.879 87.714 107.927 89.1818H104.518ZM114.116 111V81.9091H123.946C126.219 81.9091 128.084 82.2973 129.543 83.0739C131.001 83.8409 132.08 84.8968 132.781 86.2415C133.482 87.5862 133.832 89.1155 133.832 90.8295C133.832 92.5436 133.482 94.0634 132.781 95.3892C132.08 96.715 131.006 97.7566 129.557 98.5142C128.108 99.2623 126.257 99.6364 124.003 99.6364H116.048V96.4545H123.889C125.442 96.4545 126.692 96.2273 127.639 95.7727C128.596 95.3182 129.287 94.6742 129.713 93.8409C130.149 92.9981 130.366 91.9943 130.366 90.8295C130.366 89.6648 130.149 88.6468 129.713 87.7756C129.277 86.9044 128.581 86.232 127.625 85.7585C126.669 85.2756 125.404 85.0341 123.832 85.0341H117.639V111H114.116ZM127.81 97.9318L134.969 111H130.878L123.832 97.9318H127.81ZM149.418 81.9091V111H145.896V85.6023H145.725L138.623 90.3182V86.7386L145.896 81.9091H149.418Z" fill="#A9A9A9"/>
</svg>
