<svg width="220" height="151" viewBox="0 0 220 151" fill="none" xmlns="http://www.w3.org/2000/svg">
<path d="M0 0H220V123.545H106.562V151H0V123.545V0Z" fill="#A9A9A9"/>
<rect x="3" y="127" width="100" height="21" fill="#D9D9D9"/>
<rect x="20" y="20" width="21" height="21" fill="#D9D9D9"/>
<rect x="193" y="81" width="21" height="21" fill="#D9D9D9"/>
<rect x="126" y="20" width="21" height="21" fill="#D9D9D9"/>
<rect x="126" y="81" width="21" height="21" fill="#D9D9D9"/>
<line x1="144" y1="41" x2="144" y2="81" stroke="#D9D9D9" stroke-width="2"/>
<line x1="139" y1="41" x2="139" y2="81" stroke="#D9D9D9" stroke-width="2"/>
<line x1="134" y1="41" x2="134" y2="81" stroke="#D9D9D9" stroke-width="2"/>
<line x1="129" y1="41" x2="129" y2="81" stroke="#D9D9D9" stroke-width="2"/>
<line x1="39" y1="41" x2="39" y2="127" stroke="#D9D9D9" stroke-width="2"/>
<line x1="34" y1="41" x2="34" y2="127" stroke="#D9D9D9" stroke-width="2"/>
<line x1="29" y1="41" x2="29" y2="127" stroke="#D9D9D9" stroke-width="2"/>
<line x1="24" y1="41" x2="24" y2="127" stroke="#D9D9D9" stroke-width="2"/>
<line x1="41" y1="23" x2="126" y2="23" stroke="#D9D9D9" stroke-width="2"/>
<line x1="41" y1="28" x2="126" y2="28" stroke="#D9D9D9" stroke-width="2"/>
<line x1="41" y1="33" x2="126" y2="33" stroke="#D9D9D9" stroke-width="2"/>
<line x1="41" y1="38" x2="126" y2="38" stroke="#D9D9D9" stroke-width="2"/>
<line x1="147" y1="84" x2="193" y2="84" stroke="#D9D9D9" stroke-width="2"/>
<line x1="147" y1="89" x2="193" y2="89" stroke="#D9D9D9" stroke-width="2"/>
<line x1="147" y1="94" x2="193" y2="94" stroke="#D9D9D9" stroke-width="2"/>
<line x1="147" y1="99" x2="193" y2="99" stroke="#D9D9D9" stroke-width="2"/>
</svg>
